<svg width="300" height="124" viewBox="0 0 300 124" fill="none" xmlns="http://www.w3.org/2000/svg">
<mask id="mask0_10_2" style="mask-type:luminance" maskUnits="userSpaceOnUse" x="89" y="26" width="141" height="47">
<path d="M89.3997 26.6566H229.611V72.0121H89.3997V26.6566Z" fill="white"/>
</mask>
<g mask="url(#mask0_10_2)">
<path fill-rule="evenodd" clip-rule="evenodd" d="M201.534 37.34C202.749 37.2524 203.981 37.1648 205.231 37.0726C206.497 36.9851 207.78 36.8929 209.08 36.8053C211.697 35.2752 213.729 34.0861 215.343 33.1459C214.43 33.2151 213.525 33.2842 212.628 33.3533C211.74 33.4225 210.856 33.4916 209.985 33.5607C207.793 34.5378 205.052 35.7683 201.534 37.34ZM213.508 31.9845C214.234 31.9246 214.969 31.8647 215.704 31.8094C216.444 31.7495 217.191 31.6895 217.939 31.625C218.849 31.095 219.626 30.6433 220.302 30.2424C219.703 30.2931 219.103 30.3438 218.509 30.3945C217.914 30.4405 217.319 30.4912 216.728 30.5373C215.806 30.9521 214.744 31.4314 213.508 31.9845ZM89.4165 72.0214H123.986C160.327 55.7706 178.381 47.696 188.957 42.9627C190.669 42.8567 192.407 42.7461 194.175 42.6401C195.968 42.5341 197.795 42.4189 199.652 42.3083C191.621 47.0001 177.68 55.1438 148.775 72.0214H182.898L229.484 27.1222L214.591 28.3343L89.4165 72.0214Z" fill="#332C2B"/>
</g>
<mask id="mask1_10_2" style="mask-type:luminance" maskUnits="userSpaceOnUse" x="89" y="0" width="129" height="73">
<path d="M89.3997 0.335693H217.799V72.0121H89.3997V0.335693Z" fill="white"/>
</mask>
<g mask="url(#mask1_10_2)">
<path fill-rule="evenodd" clip-rule="evenodd" d="M108.689 65.2971C117.948 30.694 147.448 5.39618 182.404 5.39618C194.871 5.39618 206.645 8.61314 217.055 14.3235C204.023 5.46071 188.599 0.335693 172.071 0.335693C131.642 0.335693 97.833 31.0074 89.4158 72.0213L108.689 65.2971Z" fill="#007EA7"/>
</g>
<path fill-rule="evenodd" clip-rule="evenodd" d="M116.946 62.4166C127.547 31.6665 154.927 9.76998 187.032 9.76998C197.094 9.76998 206.688 11.9177 215.454 15.8168C205.486 10.4936 194.268 7.50244 182.405 7.50244C148.8 7.50244 120.375 31.4914 110.942 64.509L116.946 62.4166Z" fill="#007EA7"/>
<path d="M10.8731 124C17.2253 124 21.1301 120.719 21.1301 115.239C21.1301 110.634 18.3343 107.892 11.6762 106.192C7.58016 105.155 6.16525 104.03 6.16525 102.246C6.16525 100.338 7.73312 99.1723 10.2952 99.1723C13.0911 99.1723 14.7737 100.753 14.7737 103.366H20.633C20.633 97.5131 16.5752 93.7754 10.2188 93.7754C4.05776 93.7754 0.229444 97.0569 0.229444 102.371C0.229444 107.104 3.17823 109.925 9.45395 111.381C13.244 112.252 14.9649 113.455 14.9649 115.492C14.9649 117.442 13.3587 118.562 10.8349 118.562C7.88608 118.562 5.97405 116.944 5.97405 114.16H0C0 120.179 4.13424 124 10.8731 124Z" fill="#332C2B"/>
<path d="M28.3623 123.419H34.4086V105.901L40.9137 116.239H45.1245L51.6296 105.943V123.419H57.6802V94.3607H52.5517L43.0595 109.427L33.529 94.3607H28.3623V123.419Z" fill="#332C2B"/>
<path d="M63.5312 123.419H70.0364L71.838 118.396H82.4774L84.2747 123.419H90.7841L80.1405 94.3607H74.1707L63.5312 123.419ZM73.4058 113.206L77.1577 102.578L80.9478 113.206H73.4058Z" fill="#332C2B"/>
<path d="M96.6375 123.419H102.722V114.368H106.741L111.526 123.419H118.566L113.017 113.331C116.234 111.796 118.107 108.639 118.107 104.362C118.107 98.1768 114.203 94.3607 108.08 94.3607H96.6375V123.419ZM102.645 108.805V100.007H107.277C110.26 100.007 111.946 101.583 111.946 104.403C111.946 107.229 110.26 108.805 107.277 108.805H102.645Z" fill="#332C2B"/>
<path d="M132.305 123.419H138.39V100.546H146.888V94.3607H123.807V100.546H132.305V123.419Z" fill="#332C2B"/>
<path d="M171.99 123.419H175.36V97.845H184.393V94.3607H162.919V97.845H171.99V123.419Z" fill="#332C2B"/>
<path d="M191.931 123.419H195.296V112.999H201.193L207.737 123.419H211.795L205.056 112.625C208.961 111.589 211.374 108.39 211.374 103.698C211.374 97.9279 207.699 94.3607 202.149 94.3607H191.931V123.419ZM195.296 109.51V97.845H201.767C205.672 97.845 207.928 100.007 207.928 103.698C207.928 107.394 205.672 109.51 201.767 109.51H195.296Z" fill="#332C2B"/>
<path d="M217.035 123.419H220.634L223.081 116.82H236.134L238.662 123.419H242.218L231.196 94.3607H228.056L217.035 123.419ZM224.385 113.414L229.629 99.4673L234.872 113.414H224.385Z" fill="#332C2B"/>
<path d="M249.069 123.419H252.396V100.67L267.208 123.419H270.348V94.3607H267.055V117.11L252.243 94.3607H249.069V123.419Z" fill="#332C2B"/>
<path d="M289.37 123.959C295.225 123.959 299.015 120.848 299.015 115.783C299.015 111.506 296.373 108.929 289.523 107.104C284.318 105.735 282.593 104.237 282.593 101.832C282.593 99.0479 284.892 97.3058 288.716 97.3058C292.659 97.3058 295.111 99.4673 295.187 102.952H298.514C298.476 97.3058 294.728 93.8169 288.716 93.8169C282.861 93.8169 279.151 96.9325 279.151 101.832C279.151 106.316 282.096 108.805 288.678 110.51C293.5 111.754 295.531 113.206 295.531 115.907C295.531 118.769 293.156 120.47 289.37 120.47C285.198 120.47 282.287 118.23 282.211 114.492H278.841C278.88 120.179 282.976 123.959 289.37 123.959Z" fill="#332C2B"/>
</svg>
